<svg xmlns="http://www.w3.org/2000/svg" viewBox="0 0 2000 2000">
  <path d="M 1057 1605 L 1057 1607 L 1064 1607 L 1065 1606 L 1065 1605 L 1064 1604 L 1063 1604 L 1062 1603 L 1060 1603 L 1059 1604 L 1058 1604 Z M 1117 1581 L 1118 1581 L 1119 1582 L 1127 1582 L 1129 1580 L 1128 1579 L 1125 1579 L 1124 1578 L 1121 1578 L 1120 1579 L 1118 1579 L 1117 1580 Z M 839 1558 L 839 1559 L 840 1559 L 842 1561 L 849 1561 L 849 1558 L 848 1557 L 846 1557 L 845 1556 L 842 1556 L 841 1557 L 840 1557 Z M 851 1555 L 852 1556 L 854 1556 L 855 1557 L 875 1557 L 876 1556 L 879 1556 L 880 1555 L 881 1555 L 880 1555 L 879 1554 L 876 1554 L 875 1553 L 855 1553 L 854 1554 L 852 1554 Z M 1052 1552 L 1050 1554 L 1050 1559 L 1051 1560 L 1053 1560 L 1053 1559 L 1054 1558 L 1054 1555 L 1053 1554 L 1053 1553 Z M 831 1540 L 830 1540 L 830 1541 L 829 1542 L 829 1543 L 830 1544 L 830 1545 L 833 1542 Z M 964 1538 L 964 1540 L 965 1541 L 980 1541 L 982 1539 L 981 1538 L 979 1538 L 978 1537 L 966 1537 L 965 1538 Z M 1212 1528 L 1211 1529 L 1211 1530 L 1212 1531 L 1214 1531 L 1215 1530 L 1215 1529 L 1214 1528 Z M 999 1529 L 999 1530 L 1001 1532 L 1006 1532 L 1007 1531 L 1008 1531 L 1009 1530 L 1009 1529 L 1008 1528 L 1006 1528 L 1005 1527 L 1003 1527 L 1002 1528 L 1000 1528 Z M 845 1521 L 845 1522 L 844 1523 L 844 1524 L 845 1525 L 848 1525 L 848 1522 L 847 1521 Z M 1238 1493 L 1237 1494 L 1237 1500 L 1238 1500 L 1239 1501 L 1240 1500 L 1240 1494 L 1239 1493 Z M 749 1486 L 751 1486 L 752 1487 L 833 1487 L 834 1486 L 835 1486 L 836 1485 L 835 1485 L 834 1484 L 832 1484 L 831 1483 L 830 1483 L 828 1481 L 760 1481 L 759 1482 L 758 1482 L 757 1483 L 754 1483 L 753 1484 L 751 1484 L 750 1485 L 749 1485 Z M 1241 1477 L 1241 1479 L 1240 1480 L 1240 1488 L 1242 1490 L 1244 1490 L 1244 1489 L 1245 1488 L 1245 1487 L 1246 1486 L 1246 1481 L 1242 1477 Z M 866 1469 L 866 1470 L 867 1471 L 872 1471 L 873 1470 L 873 1469 L 872 1468 L 867 1468 Z M 1241 1464 L 1240 1465 L 1240 1470 L 1241 1471 L 1241 1472 L 1242 1472 L 1245 1469 L 1245 1468 L 1246 1467 L 1246 1466 L 1245 1465 L 1243 1465 L 1242 1464 Z M 665 1459 L 665 1464 L 666 1464 L 667 1463 L 667 1460 L 666 1459 Z M 1312 1443 L 1312 1445 L 1313 1446 L 1329 1446 L 1330 1445 L 1331 1445 L 1331 1443 L 1330 1443 L 1329 1442 L 1313 1442 Z M 1340 1435 L 1341 1436 L 1342 1436 L 1343 1437 L 1344 1437 L 1345 1436 L 1346 1436 L 1347 1435 L 1347 1434 L 1346 1434 L 1345 1433 L 1342 1433 Z M 1356 1425 L 1357 1426 L 1360 1426 L 1361 1425 L 1359 1423 L 1358 1423 Z M 712 1419 L 713 1420 L 714 1420 L 715 1421 L 718 1421 L 718 1418 L 717 1417 L 714 1417 Z M 1016 1412 L 1016 1414 L 1018 1416 L 1018 1417 L 1030 1417 L 1031 1416 L 1032 1416 L 1033 1415 L 1036 1415 L 1038 1413 L 1038 1412 L 1037 1412 L 1036 1411 L 1017 1411 Z M 1157 1397 L 1157 1400 L 1155 1402 L 1155 1410 L 1156 1411 L 1156 1412 L 1159 1412 L 1160 1411 L 1160 1410 L 1161 1409 L 1161 1403 L 1160 1402 L 1160 1401 L 1159 1400 L 1159 1397 Z M 691 1388 L 691 1390 L 692 1391 L 694 1391 L 695 1392 L 710 1392 L 711 1391 L 712 1391 L 713 1390 L 723 1390 L 724 1391 L 725 1391 L 726 1392 L 741 1392 L 742 1391 L 744 1391 L 744 1387 L 743 1387 L 742 1386 L 740 1386 L 739 1385 L 727 1385 L 726 1386 L 710 1386 L 709 1385 L 697 1385 L 696 1386 L 693 1386 Z M 1026 1383 L 1025 1384 L 1025 1388 L 1026 1389 L 1026 1390 L 1027 1390 L 1027 1389 L 1028 1388 L 1028 1384 L 1027 1383 Z M 672 1384 L 674 1386 L 685 1386 L 687 1384 L 685 1382 L 675 1382 L 674 1383 L 673 1383 Z M 647 1375 L 648 1376 L 649 1376 L 650 1377 L 653 1377 L 654 1376 L 656 1376 L 657 1375 L 657 1374 L 656 1373 L 655 1373 L 654 1372 L 651 1372 L 650 1373 L 648 1373 L 648 1374 Z M 594 1348 L 594 1350 L 595 1351 L 601 1351 L 602 1350 L 602 1349 L 601 1348 L 601 1347 L 597 1347 L 596 1348 Z M 1666 1345 L 1664 1347 L 1664 1350 L 1663 1351 L 1663 1401 L 1664 1402 L 1664 1405 L 1665 1406 L 1665 1407 L 1666 1407 L 1667 1406 L 1667 1405 L 1668 1404 L 1668 1348 L 1667 1347 L 1667 1346 Z M 1010 1344 L 1009 1345 L 1009 1349 L 1010 1350 L 1010 1351 L 1011 1352 L 1014 1352 L 1016 1350 L 1016 1347 L 1015 1346 L 1015 1345 L 1014 1345 L 1013 1344 Z M 1128 1341 L 1126 1343 L 1126 1344 L 1127 1345 L 1128 1345 L 1129 1344 L 1129 1342 Z M 835 1342 L 835 1345 L 840 1345 L 841 1344 L 841 1342 L 840 1341 L 836 1341 Z M 1353 1298 L 1352 1298 L 1351 1299 L 1352 1300 L 1353 1299 Z M 972 1295 L 971 1296 L 971 1302 L 972 1303 L 974 1303 L 974 1296 L 973 1295 Z M 1081 1292 L 1080 1291 L 1079 1292 L 1078 1292 L 1078 1293 L 1081 1293 Z M 1072 1289 L 1072 1290 L 1075 1290 L 1075 1289 L 1074 1288 L 1073 1288 Z M 1365 1286 L 1362 1286 L 1362 1289 L 1362 1287 L 1363 1286 Z M 613 1280 L 614 1280 L 615 1281 L 627 1281 L 628 1282 L 631 1282 L 632 1281 L 643 1281 L 645 1279 L 645 1277 L 643 1275 L 619 1275 L 618 1276 L 616 1276 L 613 1279 Z M 1519 1269 L 1519 1270 L 1518 1271 L 1518 1275 L 1519 1276 L 1519 1278 L 1520 1279 L 1521 1279 L 1521 1278 L 1522 1277 L 1522 1270 L 1521 1269 Z M 846 1261 L 846 1262 L 845 1263 L 845 1270 L 844 1271 L 844 1291 L 845 1292 L 845 1296 L 847 1296 L 847 1294 L 848 1293 L 848 1266 L 847 1265 L 847 1262 Z M 1529 1239 L 1529 1240 L 1528 1241 L 1528 1248 L 1529 1249 L 1530 1249 L 1531 1248 L 1531 1240 L 1530 1239 Z M 1414 1232 L 1414 1233 L 1416 1235 L 1417 1234 L 1419 1234 L 1420 1233 L 1421 1233 L 1421 1231 L 1415 1231 Z M 1429 1229 L 1430 1230 L 1433 1230 L 1434 1231 L 1458 1231 L 1459 1230 L 1461 1230 L 1462 1229 L 1463 1229 L 1462 1229 L 1461 1228 L 1459 1228 L 1458 1227 L 1434 1227 L 1433 1228 L 1430 1228 Z M 836 1223 L 835 1224 L 835 1235 L 836 1236 L 837 1236 L 838 1235 L 838 1233 L 839 1232 L 839 1226 L 838 1225 L 838 1224 L 837 1223 Z M 1471 1222 L 1471 1223 L 1472 1223 L 1473 1224 L 1478 1224 L 1479 1225 L 1502 1225 L 1503 1224 L 1505 1224 L 1506 1223 L 1506 1222 L 1505 1221 L 1474 1221 L 1473 1222 Z M 339 1217 L 339 1218 L 338 1219 L 338 1223 L 337 1224 L 337 1267 L 338 1268 L 338 1273 L 339 1274 L 341 1274 L 341 1273 L 342 1272 L 342 1220 L 341 1219 L 341 1218 L 340 1217 Z M 878 1208 L 876 1210 L 876 1214 L 875 1215 L 875 1220 L 876 1221 L 876 1224 L 875 1225 L 875 1337 L 876 1338 L 876 1341 L 875 1342 L 875 1346 L 878 1346 L 880 1343 L 880 1322 L 879 1321 L 879 1295 L 880 1294 L 880 1240 L 879 1239 L 879 1238 L 880 1237 L 880 1230 L 879 1229 L 879 1223 L 880 1222 L 880 1211 Z M 827 1202 L 826 1203 L 826 1209 L 828 1209 L 828 1208 L 829 1207 L 829 1204 Z M 886 1196 L 886 1198 L 887 1199 L 890 1199 L 891 1198 L 891 1197 L 890 1196 Z M 589 1123 L 588 1124 L 588 1128 L 589 1129 L 589 1130 L 591 1130 L 591 1123 Z M 605 1069 L 604 1070 L 604 1076 L 605 1076 L 606 1077 L 607 1076 L 607 1075 L 608 1074 L 608 1071 L 606 1069 Z M 525 1000 L 525 1002 L 526 1003 L 528 1003 L 529 1002 L 530 1002 L 531 1001 L 530 1000 Z M 408 980 L 408 983 L 409 984 L 410 984 L 411 983 L 411 981 L 410 980 Z M 400 968 L 399 969 L 399 970 L 400 971 L 401 970 L 401 969 Z M 419 791 L 418 792 L 418 794 L 417 795 L 417 806 L 418 807 L 418 809 L 419 809 L 420 808 L 420 805 L 421 804 L 421 796 L 420 795 L 420 792 Z M 672 704 L 672 706 Z M 340 595 L 338 597 L 338 602 L 337 603 L 337 645 L 338 646 L 338 650 L 339 651 L 341 651 L 341 650 L 342 649 L 342 598 L 341 597 L 341 596 Z M 652 589 L 652 590 L 653 591 L 654 591 L 655 592 L 660 592 L 661 591 L 662 591 L 662 589 L 661 588 L 654 588 L 653 589 Z M 706 586 L 706 587 L 705 588 L 705 590 L 706 591 L 706 592 L 708 592 L 708 586 Z M 688 574 L 690 574 L 691 575 L 691 577 L 691 574 Z M 652 570 L 652 572 L 653 572 L 654 573 L 668 573 L 669 572 L 670 572 L 670 570 L 669 569 L 653 569 Z M 540 559 L 539 559 L 538 560 L 538 562 L 537 563 L 537 568 L 538 569 L 538 571 L 539 572 L 541 570 L 541 569 L 542 568 L 542 564 L 541 563 L 541 561 L 540 560 Z M 620 535 L 620 537 L 621 537 L 622 538 L 623 538 L 624 539 L 627 539 L 627 536 L 625 534 L 622 534 L 621 535 Z M 761 492 L 760 492 L 760 493 L 759 494 L 759 499 L 760 500 L 761 499 L 762 499 L 762 493 Z M 599 489 L 599 490 L 598 491 L 598 497 L 597 498 L 598 499 L 598 502 L 597 503 L 597 504 L 595 506 L 595 509 L 596 510 L 597 510 L 598 509 L 598 508 L 599 507 L 600 508 L 603 508 L 603 506 L 602 505 L 602 504 L 601 503 L 601 496 L 602 495 L 602 494 L 601 493 L 601 492 L 600 491 L 600 490 Z M 576 485 L 576 486 L 579 486 L 579 485 L 578 485 L 577 484 Z M 747 479 L 748 480 L 749 480 L 750 479 L 751 479 L 750 479 L 749 478 L 748 478 Z M 741 474 L 741 477 L 742 477 L 743 476 L 742 475 L 742 474 Z M 767 449 L 766 450 L 766 451 L 767 452 L 768 451 L 768 450 Z M 791 402 L 788 405 L 788 409 L 789 409 L 792 412 L 793 412 L 794 411 L 794 403 L 793 402 Z M 795 390 L 794 391 L 794 398 L 795 399 L 796 399 L 797 398 L 797 391 L 796 390 Z M 347 592 L 347 654 L 420 669 L 429 742 L 407 764 L 426 796 L 429 956 L 403 973 L 429 1009 L 426 1189 L 398 1211 L 347 1213 L 353 1282 L 654 1275 L 678 1253 L 702 1280 L 651 1283 L 710 1290 L 606 1291 L 619 1298 L 562 1308 L 559 1328 L 578 1334 L 565 1340 L 662 1380 L 756 1386 L 789 1352 L 812 1369 L 795 1379 L 829 1381 L 769 1386 L 671 1453 L 671 1472 L 741 1477 L 673 1480 L 851 1481 L 839 1476 L 898 1444 L 897 1421 L 900 1437 L 912 1421 L 952 1435 L 860 1504 L 838 1554 L 995 1537 L 1044 1506 L 1066 1465 L 1126 1463 L 1075 1469 L 1117 1473 L 1060 1535 L 1034 1590 L 1049 1611 L 1197 1546 L 1233 1508 L 1238 1463 L 1260 1460 L 1239 1453 L 1336 1441 L 1368 1414 L 1658 1411 L 1654 1340 L 1487 1339 L 1525 1261 L 1515 1226 L 1409 1237 L 1309 1340 L 1212 1341 L 1205 1405 L 1222 1416 L 1185 1419 L 1213 1426 L 1147 1420 L 1145 1364 L 1058 1282 L 1203 1268 L 1199 1214 L 1128 1204 L 1115 1164 L 1116 693 L 1140 656 L 1199 654 L 1197 591 L 920 593 L 779 1015 L 656 680 L 700 582 L 643 603 L 624 584 L 641 556 L 693 563 L 753 511 L 753 487 L 725 482 L 783 431 L 788 388 L 711 418 L 680 449 L 681 474 L 683 406 L 679 428 L 673 401 L 649 409 L 604 476 L 604 517 L 632 539 L 615 565 L 609 549 L 612 572 L 592 495 L 574 490 L 540 590 Z M 886 1546 L 887 1545 L 895 1545 L 896 1546 L 895 1547 L 887 1547 Z M 1069 1529 L 1069 1526 L 1070 1525 L 1074 1525 L 1075 1526 L 1075 1527 L 1074 1528 L 1073 1528 L 1071 1530 L 1070 1530 Z M 855 1514 L 856 1515 L 856 1517 L 855 1518 L 854 1517 L 854 1515 Z M 1169 1507 L 1170 1508 L 1170 1510 L 1169 1511 L 1168 1510 L 1168 1508 Z M 1033 1507 L 1034 1508 L 1034 1510 L 1032 1512 L 1029 1512 L 1028 1511 L 1029 1510 L 1030 1510 L 1031 1509 L 1032 1509 L 1032 1508 Z M 1085 1506 L 1086 1505 L 1087 1506 L 1087 1507 L 1086 1508 L 1085 1507 Z M 1089 1502 L 1090 1503 L 1090 1504 L 1089 1505 L 1088 1505 L 1087 1504 Z M 1181 1498 L 1182 1497 L 1184 1497 L 1185 1498 L 1184 1499 L 1182 1499 Z M 1042 1498 L 1043 1497 L 1044 1498 L 1044 1499 L 1043 1500 L 1042 1499 Z M 869 1497 L 870 1496 L 871 1496 L 872 1497 L 872 1498 L 871 1499 L 870 1499 L 869 1498 Z M 879 1488 L 880 1487 L 881 1487 L 882 1488 L 881 1489 L 880 1489 Z M 1001 1482 L 1002 1483 L 1002 1485 L 1001 1486 L 998 1486 L 997 1485 L 998 1484 L 1000 1484 L 1000 1483 Z M 1203 1479 L 1204 1478 L 1205 1479 L 1204 1480 Z M 1007 1479 L 1008 1478 L 1010 1478 L 1011 1479 L 1010 1480 L 1008 1480 Z M 1208 1472 L 1209 1473 L 1208 1474 L 1208 1475 L 1207 1476 L 1206 1475 L 1206 1473 L 1207 1472 Z M 1018 1472 L 1019 1473 L 1018 1474 L 1018 1475 L 1017 1476 L 1016 1476 L 1015 1475 L 1016 1474 L 1016 1473 L 1017 1472 Z M 1058 1466 L 1059 1467 L 1059 1474 L 1060 1475 L 1060 1478 L 1059 1479 L 1057 1479 L 1056 1478 L 1056 1474 L 1057 1473 L 1057 1467 Z M 1028 1466 L 1029 1465 L 1030 1466 L 1029 1467 Z M 1031 1463 L 1032 1462 L 1033 1463 L 1032 1464 Z M 1234 1457 L 1235 1456 L 1236 1456 L 1237 1457 L 1236 1458 L 1235 1458 Z M 1216 1459 L 1216 1457 L 1217 1456 L 1219 1456 L 1220 1457 L 1219 1458 L 1218 1458 L 1218 1459 L 1217 1460 Z M 1054 1459 L 1055 1458 L 1056 1458 L 1058 1456 L 1059 1457 L 1059 1459 L 1071 1459 L 1072 1460 L 1072 1461 L 1071 1462 L 1068 1462 L 1067 1461 L 1055 1461 L 1054 1460 Z M 1035 1457 L 1036 1456 L 1037 1456 L 1038 1457 L 1037 1458 L 1036 1458 Z M 673 1456 L 673 1453 L 674 1452 L 678 1452 L 679 1453 L 677 1455 L 676 1455 L 676 1456 L 675 1457 L 674 1457 Z M 681 1447 L 682 1448 L 682 1450 L 681 1451 L 680 1450 L 680 1448 Z M 682 1447 L 683 1446 L 685 1446 L 686 1447 L 685 1448 L 683 1448 Z M 820 1441 L 821 1440 L 824 1440 L 825 1441 L 824 1442 L 821 1442 Z M 947 1438 L 948 1439 L 948 1441 L 947 1442 L 945 1442 L 944 1441 L 945 1440 L 946 1440 L 946 1439 Z M 830 1438 L 831 1437 L 832 1438 L 831 1439 Z M 692 1438 L 694 1436 L 697 1436 L 698 1437 L 697 1438 L 696 1438 L 695 1439 L 693 1439 Z M 851 1434 L 852 1433 L 853 1433 L 854 1434 L 853 1435 L 852 1435 Z M 1292 1428 L 1293 1427 L 1294 1427 L 1295 1426 L 1296 1427 L 1298 1427 L 1299 1428 L 1301 1428 L 1302 1429 L 1302 1430 L 1303 1431 L 1305 1431 L 1306 1432 L 1306 1434 L 1308 1434 L 1309 1435 L 1308 1436 L 1305 1436 L 1300 1431 L 1300 1430 L 1297 1430 L 1296 1431 L 1294 1429 L 1293 1429 Z M 1175 1428 L 1174 1429 L 1144 1429 L 1143 1428 L 1144 1427 L 1171 1427 L 1172 1426 L 1173 1427 L 1174 1427 Z M 1114 1425 L 1115 1424 L 1116 1425 L 1115 1426 Z M 871 1425 L 872 1424 L 874 1424 L 875 1425 L 874 1426 L 872 1426 Z M 1042 1422 L 1043 1421 L 1058 1421 L 1059 1422 L 1059 1424 L 1060 1425 L 1059 1426 L 1049 1426 L 1048 1425 L 1048 1424 L 1047 1423 L 1043 1423 Z M 874 1422 L 875 1421 L 876 1422 L 875 1423 Z M 1289 1420 L 1290 1421 L 1292 1421 L 1293 1422 L 1291 1424 L 1291 1425 L 1290 1426 L 1289 1425 L 1289 1424 L 1287 1422 Z M 1105 1419 L 1106 1418 L 1108 1418 L 1109 1419 L 1108 1420 L 1106 1420 Z M 901 1419 L 902 1418 L 909 1418 L 910 1419 L 910 1420 L 909 1421 L 905 1421 L 904 1420 L 902 1420 Z M 877 1419 L 878 1418 L 881 1418 L 882 1419 L 881 1420 L 878 1420 Z M 1221 1418 L 1222 1417 L 1230 1417 L 1231 1418 L 1238 1418 L 1239 1417 L 1240 1418 L 1245 1418 L 1246 1419 L 1245 1420 L 1224 1420 L 1223 1421 L 1221 1419 Z M 1264 1414 L 1264 1415 L 1263 1416 L 1258 1416 L 1257 1415 L 1258 1414 L 1262 1414 L 1263 1413 Z M 886 1413 L 887 1412 L 896 1412 L 897 1413 L 897 1414 L 898 1415 L 898 1416 L 897 1417 L 894 1417 L 893 1416 L 889 1416 Z M 994 1412 L 995 1411 L 996 1411 L 997 1412 L 996 1413 L 995 1413 Z M 1092 1402 L 1093 1402 L 1094 1403 L 1094 1406 L 1093 1407 L 1092 1406 L 1092 1404 L 1091 1403 Z M 1086 1400 L 1087 1399 L 1088 1399 L 1089 1400 L 1088 1401 L 1087 1401 Z M 947 1399 L 948 1398 L 949 1399 L 952 1399 L 953 1400 L 952 1401 L 948 1401 L 947 1400 Z M 946 1397 L 947 1396 L 948 1397 L 947 1398 Z M 1035 1393 L 1036 1393 L 1037 1394 L 1037 1396 L 1039 1396 L 1040 1397 L 1040 1401 L 1039 1402 L 1037 1402 L 1036 1401 L 1036 1400 L 1035 1400 L 1034 1399 L 1034 1394 Z M 934 1381 L 935 1380 L 936 1381 L 935 1382 Z M 881 1371 L 882 1370 L 884 1370 L 885 1371 L 885 1372 L 886 1373 L 889 1373 L 889 1372 L 890 1371 L 891 1371 L 892 1372 L 892 1374 L 891 1375 L 884 1375 L 883 1374 L 883 1372 L 882 1372 Z M 871 1367 L 872 1366 L 873 1366 L 874 1367 L 876 1367 L 877 1366 L 878 1366 L 880 1368 L 879 1369 L 872 1369 L 871 1368 Z M 927 1362 L 928 1361 L 929 1362 L 928 1363 Z M 776 1351 L 777 1351 L 778 1352 L 778 1357 L 777 1358 L 776 1358 L 775 1357 L 775 1352 Z M 842 1351 L 843 1350 L 844 1351 L 848 1351 L 849 1350 L 850 1350 L 851 1351 L 851 1353 L 852 1354 L 852 1355 L 851 1356 L 847 1356 L 846 1355 L 846 1354 L 845 1353 L 843 1353 L 842 1352 Z M 609 1350 L 610 1349 L 612 1349 L 613 1350 L 612 1351 L 610 1351 Z M 778 1349 L 779 1348 L 781 1348 L 782 1349 L 781 1350 L 779 1350 Z M 752 1349 L 753 1348 L 754 1348 L 755 1349 L 754 1350 L 753 1350 Z M 763 1343 L 764 1342 L 773 1342 L 774 1343 L 774 1345 L 773 1346 L 771 1344 L 765 1344 L 764 1345 L 763 1344 Z M 1321 1335 L 1322 1336 L 1320 1338 L 1319 1338 L 1319 1339 L 1318 1340 L 1317 1340 L 1316 1339 L 1316 1337 L 1317 1336 L 1319 1336 L 1320 1335 Z M 1118 1336 L 1119 1335 L 1120 1336 L 1119 1337 Z M 1324 1331 L 1325 1332 L 1325 1334 L 1324 1335 L 1322 1333 Z M 1327 1328 L 1328 1329 L 1328 1330 L 1327 1331 L 1326 1331 L 1325 1330 Z M 1328 1327 L 1329 1326 L 1330 1326 L 1331 1327 L 1330 1328 L 1329 1328 Z M 798 1324 L 799 1323 L 800 1324 L 799 1325 Z M 1102 1317 L 1103 1316 L 1104 1317 L 1104 1318 L 1103 1319 L 1102 1318 Z M 1089 1306 L 1090 1305 L 1091 1306 L 1092 1306 L 1094 1308 L 1094 1309 L 1093 1310 L 1092 1309 L 1090 1309 L 1089 1308 Z M 602 1299 L 603 1300 L 603 1301 L 602 1302 L 601 1302 L 600 1301 Z M 1431 1299 L 1432 1298 L 1433 1299 L 1433 1300 L 1434 1300 L 1435 1301 L 1441 1301 L 1442 1302 L 1442 1305 L 1441 1306 L 1435 1306 L 1434 1305 L 1434 1303 L 1432 1303 L 1431 1302 Z M 785 1292 L 786 1291 L 787 1292 L 787 1293 L 786 1294 L 785 1293 Z M 705 1283 L 706 1282 L 707 1283 L 707 1284 L 706 1285 L 705 1284 Z M 966 1279 L 975 1279 L 976 1282 L 979 1282 L 980 1279 L 989 1279 L 990 1280 L 989 1284 L 991 1287 L 994 1285 L 995 1279 L 999 1280 L 999 1289 L 996 1294 L 996 1301 L 998 1303 L 1000 1301 L 1000 1293 L 1001 1292 L 1002 1296 L 1005 1298 L 1005 1310 L 1004 1311 L 1001 1307 L 999 1310 L 1000 1321 L 1001 1322 L 1003 1319 L 1004 1311 L 1005 1310 L 1008 1312 L 1008 1322 L 1006 1324 L 1006 1337 L 1007 1338 L 1009 1337 L 1009 1328 L 1011 1327 L 1014 1330 L 1015 1342 L 1018 1343 L 1018 1356 L 1015 1358 L 1015 1366 L 1017 1368 L 1019 1366 L 1019 1358 L 1020 1357 L 1021 1360 L 1024 1362 L 1024 1368 L 1022 1370 L 1022 1378 L 1024 1379 L 1026 1371 L 1027 1376 L 1029 1378 L 1030 1383 L 1034 1390 L 1031 1395 L 1032 1399 L 1036 1401 L 1036 1406 L 1039 1406 L 1040 1403 L 1042 1402 L 1043 1407 L 1041 1408 L 1040 1413 L 1043 1414 L 1045 1408 L 1049 1414 L 1052 1416 L 1051 1417 L 1045 1417 L 1043 1418 L 1042 1421 L 1017 1420 L 1016 1417 L 998 1416 L 996 1413 L 997 1412 L 1010 1411 L 1011 1410 L 1010 1408 L 995 1407 L 992 1410 L 976 1410 L 975 1407 L 969 1407 L 966 1404 L 957 1404 L 956 1403 L 957 1402 L 972 1402 L 973 1401 L 975 1405 L 987 1405 L 991 1403 L 986 1401 L 975 1401 L 974 1400 L 975 1397 L 978 1396 L 978 1393 L 981 1391 L 983 1379 L 986 1380 L 984 1383 L 984 1387 L 987 1389 L 989 1389 L 990 1387 L 988 1378 L 985 1377 L 985 1359 L 990 1355 L 990 1343 L 988 1340 L 986 1340 L 984 1342 L 984 1355 L 983 1356 L 981 1345 L 981 1334 L 984 1331 L 984 1322 L 982 1320 L 980 1323 L 981 1333 L 979 1334 L 978 1330 L 975 1328 L 975 1320 L 977 1318 L 979 1312 L 977 1309 L 975 1309 L 974 1314 L 973 1315 L 972 1314 L 972 1308 L 966 1299 L 966 1295 L 968 1293 L 968 1288 L 966 1287 L 963 1291 L 959 1289 L 960 1285 L 966 1284 L 965 1281 Z M 750 1280 L 751 1279 L 752 1280 L 752 1281 L 751 1282 L 750 1281 Z M 607 1271 L 608 1270 L 609 1270 L 610 1271 L 609 1272 L 608 1272 Z M 1381 1269 L 1382 1268 L 1384 1268 L 1385 1269 L 1385 1270 L 1384 1271 L 1382 1271 L 1381 1270 Z M 1387 1264 L 1388 1265 L 1388 1267 L 1387 1268 L 1386 1268 L 1385 1267 L 1386 1266 L 1386 1265 Z M 687 1263 L 688 1264 L 688 1266 L 687 1267 L 686 1266 L 686 1264 Z M 591 1264 L 592 1263 L 593 1263 L 594 1264 L 593 1265 L 592 1265 Z M 1387 1264 L 1387 1263 L 1388 1262 L 1390 1262 L 1391 1263 L 1390 1264 L 1389 1264 L 1388 1265 Z M 683 1261 L 684 1260 L 685 1261 L 684 1262 Z M 1396 1255 L 1397 1256 L 1397 1257 L 1396 1258 L 1395 1258 L 1394 1259 L 1394 1260 L 1393 1261 L 1392 1260 L 1392 1257 L 1394 1255 Z M 1519 1255 L 1520 1254 L 1521 1255 L 1520 1256 Z M 1520 1252 L 1521 1251 L 1522 1252 L 1522 1253 L 1521 1254 L 1520 1253 Z M 673 1251 L 674 1250 L 675 1250 L 676 1251 L 676 1252 L 675 1253 Z M 1406 1245 L 1407 1246 L 1407 1248 L 1406 1249 L 1404 1249 L 1403 1250 L 1401 1248 L 1403 1246 L 1405 1246 Z M 661 1245 L 662 1244 L 663 1244 L 666 1241 L 669 1241 L 670 1242 L 670 1244 L 672 1244 L 673 1245 L 672 1246 L 662 1246 Z M 633 1242 L 634 1241 L 637 1241 L 638 1242 L 638 1243 L 639 1244 L 638 1245 L 637 1245 L 635 1243 L 634 1243 Z M 612 1232 L 613 1233 L 613 1235 L 612 1236 L 611 1235 L 611 1233 Z M 815 1191 L 816 1192 L 818 1192 L 819 1193 L 819 1200 L 818 1201 L 817 1200 L 817 1198 L 814 1195 L 814 1192 Z M 611 1172 L 612 1171 L 621 1171 L 622 1172 L 622 1175 L 621 1176 L 618 1176 L 617 1175 L 617 1174 L 616 1173 L 612 1173 Z M 612 1163 L 613 1162 L 615 1162 L 616 1163 L 616 1165 L 615 1166 Z M 631 1134 L 632 1135 L 632 1138 L 631 1139 L 630 1138 L 630 1135 Z M 534 1119 L 535 1118 L 536 1118 L 537 1119 L 536 1120 L 535 1120 Z M 516 1112 L 517 1111 L 520 1111 L 521 1112 L 521 1114 L 520 1115 L 519 1114 L 518 1114 Z M 613 1162 L 612 1163 L 609 1163 L 605 1161 L 598 1161 L 597 1163 L 599 1165 L 608 1164 L 610 1167 L 610 1169 L 609 1170 L 600 1170 L 599 1168 L 594 1164 L 591 1164 L 590 1163 L 584 1163 L 583 1162 L 584 1161 L 591 1161 L 594 1157 L 593 1155 L 583 1155 L 581 1160 L 568 1160 L 566 1157 L 560 1157 L 559 1156 L 560 1155 L 576 1155 L 578 1154 L 578 1152 L 576 1152 L 575 1151 L 561 1151 L 559 1152 L 558 1154 L 520 1154 L 519 1152 L 522 1150 L 548 1150 L 552 1148 L 556 1148 L 557 1146 L 555 1146 L 554 1145 L 520 1145 L 519 1144 L 519 1141 L 520 1140 L 519 1139 L 519 1135 L 520 1134 L 519 1126 L 520 1125 L 518 1122 L 522 1119 L 522 1117 L 521 1116 L 522 1115 L 528 1115 L 530 1117 L 532 1117 L 533 1118 L 532 1119 L 528 1119 L 525 1121 L 525 1123 L 526 1124 L 536 1124 L 539 1120 L 542 1120 L 543 1121 L 552 1121 L 554 1124 L 559 1124 L 560 1122 L 559 1120 L 552 1120 L 551 1119 L 552 1118 L 557 1118 L 558 1117 L 560 1117 L 562 1119 L 565 1120 L 566 1118 L 563 1115 L 564 1114 L 564 1112 L 565 1111 L 567 1111 L 570 1108 L 570 1106 L 571 1105 L 575 1105 L 577 1104 L 579 1108 L 581 1108 L 582 1107 L 582 1100 L 583 1099 L 585 1104 L 587 1105 L 587 1112 L 584 1114 L 584 1116 L 587 1118 L 589 1115 L 591 1116 L 591 1120 L 594 1122 L 594 1124 L 597 1127 L 597 1131 L 594 1134 L 594 1136 L 596 1139 L 598 1137 L 598 1135 L 599 1134 L 600 1135 L 600 1137 L 603 1140 L 602 1142 L 598 1143 L 598 1148 L 600 1149 L 601 1148 L 603 1148 L 603 1147 L 605 1146 L 607 1150 L 604 1152 L 604 1157 L 606 1158 L 607 1157 L 607 1153 L 609 1152 L 610 1153 L 610 1155 L 612 1155 L 613 1156 Z M 581 1099 L 580 1100 L 579 1100 L 578 1101 L 576 1101 L 575 1100 L 566 1100 L 565 1099 L 565 1098 L 564 1098 L 563 1097 L 564 1096 L 578 1096 L 579 1095 L 580 1095 L 581 1096 Z M 548 1093 L 549 1092 L 552 1092 L 553 1093 L 552 1094 L 549 1094 Z M 541 1087 L 542 1086 L 543 1087 L 542 1088 Z M 596 1064 L 597 1063 L 598 1064 L 597 1065 Z M 596 1059 L 597 1060 L 597 1062 L 596 1063 L 595 1062 L 595 1060 Z M 594 1054 L 599 1054 L 601 1057 L 611 1057 L 614 1054 L 617 1054 L 617 1052 L 618 1051 L 619 1051 L 622 1055 L 622 1057 L 623 1058 L 623 1061 L 625 1064 L 625 1066 L 626 1067 L 626 1068 L 629 1071 L 629 1077 L 632 1081 L 632 1085 L 634 1088 L 634 1093 L 635 1094 L 636 1097 L 638 1099 L 638 1107 L 639 1108 L 639 1115 L 638 1116 L 638 1124 L 640 1127 L 641 1127 L 642 1126 L 642 1119 L 643 1118 L 643 1117 L 644 1116 L 647 1118 L 647 1122 L 646 1123 L 645 1123 L 645 1124 L 644 1125 L 644 1128 L 642 1130 L 642 1132 L 641 1133 L 641 1146 L 640 1147 L 637 1145 L 635 1145 L 633 1143 L 634 1142 L 638 1142 L 639 1141 L 639 1135 L 637 1133 L 636 1133 L 635 1132 L 632 1132 L 631 1131 L 631 1130 L 632 1129 L 632 1126 L 633 1125 L 632 1124 L 632 1123 L 631 1122 L 629 1125 L 630 1126 L 630 1129 L 631 1130 L 631 1134 L 630 1135 L 628 1135 L 627 1134 L 627 1129 L 626 1129 L 624 1127 L 624 1124 L 626 1122 L 626 1113 L 625 1113 L 623 1111 L 623 1104 L 622 1103 L 619 1104 L 619 1108 L 620 1109 L 620 1112 L 623 1115 L 623 1118 L 622 1119 L 620 1117 L 620 1116 L 619 1116 L 618 1115 L 618 1112 L 617 1111 L 617 1110 L 616 1110 L 615 1109 L 615 1105 L 617 1103 L 617 1094 L 615 1092 L 614 1093 L 614 1094 L 613 1095 L 613 1098 L 614 1099 L 613 1100 L 612 1100 L 611 1099 L 611 1098 L 608 1096 L 608 1090 L 607 1089 L 608 1088 L 611 1088 L 612 1089 L 612 1081 L 611 1082 L 609 1082 L 608 1083 L 608 1087 L 607 1088 L 606 1088 L 605 1087 L 605 1081 L 604 1080 L 604 1079 L 603 1079 L 602 1078 L 602 1076 L 599 1074 L 599 1067 L 600 1066 L 602 1066 L 605 1064 L 609 1064 L 610 1063 L 613 1062 L 613 1061 L 612 1060 L 609 1060 L 608 1059 L 598 1059 L 597 1060 L 596 1059 L 596 1058 L 593 1055 Z M 593 1051 L 594 1052 L 594 1054 L 593 1055 L 592 1054 L 592 1052 Z M 589 1048 L 590 1047 L 591 1048 L 590 1049 Z M 545 1020 L 546 1019 L 547 1020 L 546 1021 Z M 555 1015 L 556 1016 L 556 1029 L 555 1030 L 554 1029 L 554 1027 L 553 1027 L 552 1026 L 553 1025 L 554 1025 L 554 1018 L 553 1017 Z M 423 998 L 424 997 L 425 997 L 426 998 L 426 999 L 425 1000 L 424 1000 L 423 999 Z M 419 992 L 420 991 L 422 991 L 423 992 L 423 994 L 422 995 L 420 995 L 419 994 Z M 419 988 L 420 989 L 420 991 L 419 992 L 418 991 L 418 989 Z M 516 932 L 517 931 L 518 931 L 519 932 L 518 933 L 517 933 Z M 525 924 L 536 924 L 537 925 L 537 931 L 535 933 L 535 934 L 534 935 L 534 957 L 536 960 L 538 957 L 538 934 L 539 933 L 540 934 L 540 944 L 541 945 L 541 950 L 543 952 L 543 969 L 542 970 L 541 969 L 538 969 L 538 971 L 537 972 L 537 981 L 538 982 L 538 986 L 539 987 L 539 988 L 540 987 L 540 985 L 541 984 L 541 981 L 542 980 L 542 973 L 543 972 L 545 972 L 546 973 L 546 990 L 544 992 L 544 1007 L 545 1008 L 546 1008 L 547 1007 L 547 995 L 548 994 L 550 996 L 550 997 L 551 997 L 552 998 L 552 1009 L 553 1010 L 553 1012 L 551 1015 L 547 1015 L 546 1016 L 545 1016 L 543 1018 L 542 1018 L 541 1017 L 541 1016 L 539 1014 L 536 1014 L 535 1013 L 535 1012 L 532 1010 L 533 1009 L 537 1009 L 538 1008 L 537 1007 L 537 1006 L 533 1006 L 531 1008 L 527 1008 L 526 1007 L 526 1005 L 523 1005 L 522 1004 L 522 1003 L 521 1003 L 519 1001 L 520 1000 L 522 1000 L 523 999 L 523 997 L 522 996 L 521 996 L 519 994 L 519 983 L 520 982 L 520 944 L 518 941 L 520 938 L 520 935 L 523 932 L 520 929 L 521 928 L 522 928 L 523 927 L 523 926 Z M 526 916 L 527 915 L 536 915 L 537 916 L 537 919 L 536 920 L 527 920 L 526 919 Z M 568 901 L 569 902 L 569 903 L 572 906 L 572 914 L 573 915 L 573 917 L 574 918 L 574 919 L 575 920 L 575 925 L 576 926 L 576 927 L 577 927 L 578 928 L 578 932 L 575 935 L 575 938 L 574 939 L 573 938 L 573 931 L 571 929 L 570 929 L 569 930 L 569 938 L 570 939 L 570 940 L 571 941 L 571 945 L 569 947 L 569 948 L 568 949 L 568 954 L 567 955 L 566 955 L 566 956 L 565 957 L 564 956 L 564 932 L 563 931 L 563 928 L 564 927 L 565 927 L 566 926 L 566 915 L 567 914 L 567 907 L 566 906 L 566 903 Z M 559 874 L 562 877 L 562 886 L 563 887 L 563 906 L 562 907 L 562 914 L 563 915 L 563 926 L 562 927 L 561 926 L 561 916 L 560 915 L 560 913 L 558 911 L 558 875 Z M 428 816 L 429 817 L 429 830 L 428 831 L 427 831 L 426 830 L 426 824 L 427 823 L 427 817 Z M 518 775 L 524 775 L 525 776 L 525 779 L 526 779 L 527 780 L 527 782 L 528 783 L 528 786 L 530 788 L 530 789 L 531 790 L 531 794 L 532 795 L 532 798 L 535 801 L 536 801 L 537 802 L 537 857 L 536 858 L 535 857 L 535 854 L 534 853 L 533 853 L 532 852 L 532 847 L 531 846 L 531 843 L 532 842 L 532 834 L 531 833 L 531 828 L 532 827 L 532 821 L 531 820 L 531 805 L 530 804 L 530 803 L 529 803 L 529 804 L 528 805 L 528 834 L 527 835 L 527 838 L 526 839 L 523 836 L 523 834 L 521 834 L 520 833 L 520 831 L 519 830 L 520 829 L 521 829 L 522 828 L 522 824 L 519 821 L 519 812 L 520 811 L 519 810 L 519 788 L 518 787 L 518 786 L 519 785 L 519 784 L 521 782 L 523 782 L 523 780 L 522 779 L 521 779 L 520 778 L 517 778 L 516 777 Z M 948 767 L 951 770 L 949 777 L 951 786 L 949 790 L 949 1165 L 951 1169 L 949 1175 L 951 1179 L 945 1195 L 936 1205 L 906 1211 L 904 1206 L 897 1211 L 898 1202 L 882 1206 L 882 1338 L 885 1340 L 885 1355 L 888 1356 L 888 1365 L 882 1365 L 883 1356 L 880 1354 L 878 1362 L 873 1361 L 871 1366 L 865 1366 L 861 1362 L 869 1360 L 869 1358 L 853 1359 L 852 1357 L 858 1354 L 857 1351 L 851 1351 L 847 1347 L 837 1350 L 836 1347 L 827 1343 L 832 1340 L 830 1337 L 825 1340 L 820 1339 L 819 1337 L 825 1334 L 823 1331 L 817 1331 L 814 1334 L 804 1328 L 816 1329 L 822 1327 L 824 1323 L 831 1325 L 829 1320 L 834 1313 L 835 1318 L 838 1318 L 836 1305 L 839 1305 L 840 1311 L 844 1309 L 843 1302 L 839 1301 L 839 1255 L 844 1252 L 843 1239 L 838 1244 L 839 1251 L 837 1252 L 836 1241 L 830 1231 L 833 1216 L 830 1212 L 829 1219 L 826 1218 L 823 1209 L 820 1207 L 823 1195 L 818 1186 L 812 1189 L 811 1185 L 814 1166 L 822 1150 L 832 1113 L 836 1109 L 842 1081 L 845 1079 L 858 1033 L 861 1031 L 867 1004 L 880 972 L 880 964 L 887 954 L 886 949 L 889 945 L 893 926 L 896 923 L 896 915 L 901 907 L 905 887 L 917 859 L 918 848 L 922 843 L 921 837 L 926 829 L 927 821 L 931 818 L 931 805 L 936 800 L 937 790 Z M 428 745 L 429 746 L 429 748 L 428 749 L 426 749 L 425 748 Z M 668 652 L 669 653 L 668 654 L 668 655 L 667 656 L 667 657 L 666 658 L 665 657 L 665 653 L 666 652 Z M 672 648 L 674 650 L 672 652 L 671 652 L 670 653 L 669 653 L 668 652 L 668 650 L 669 649 L 671 649 Z M 679 635 L 680 636 L 680 639 L 679 640 L 678 639 L 678 636 Z M 682 632 L 683 633 L 683 635 L 682 636 L 681 636 L 680 635 L 680 634 Z M 630 603 L 631 602 L 632 603 L 633 603 L 635 605 L 634 606 L 631 606 L 630 605 Z M 669 589 L 670 588 L 672 588 L 673 589 L 672 590 L 670 590 Z M 605 577 L 606 576 L 607 577 L 606 578 Z M 637 564 L 638 565 L 638 570 L 637 571 L 635 569 L 634 569 L 633 568 L 635 566 L 636 566 L 636 565 Z M 633 533 L 634 532 L 635 533 L 634 534 Z M 731 527 L 732 526 L 733 526 L 734 527 L 733 528 L 732 528 Z M 587 498 L 588 499 L 588 501 L 587 502 L 586 501 L 586 499 Z M 740 488 L 741 487 L 742 488 L 741 489 Z M 741 489 L 740 490 L 738 490 L 736 492 L 709 492 L 708 493 L 706 493 L 704 495 L 694 495 L 693 494 L 694 493 L 696 493 L 697 492 L 697 491 L 696 490 L 696 489 L 697 488 L 716 488 L 717 487 L 717 486 L 718 485 L 721 485 L 722 484 L 724 486 L 724 487 L 725 487 L 726 488 L 733 488 L 734 487 L 737 487 L 738 488 L 740 488 Z M 691 480 L 692 481 L 692 485 L 690 487 L 689 487 L 688 488 L 688 492 L 690 494 L 693 494 L 694 495 L 693 496 L 688 496 L 687 495 L 685 495 L 684 494 L 684 487 L 685 486 L 686 486 L 686 485 Z M 675 478 L 676 477 L 677 477 L 678 478 L 682 478 L 683 479 L 682 480 L 676 480 L 675 479 Z M 690 476 L 691 475 L 692 476 L 692 477 L 691 478 L 690 477 Z M 751 462 L 753 464 L 752 465 L 752 467 L 751 468 L 748 468 L 747 467 L 747 464 L 748 463 L 750 463 Z M 754 460 L 755 459 L 756 460 L 755 461 Z M 756 457 L 757 456 L 758 456 L 759 457 L 759 458 L 758 459 L 757 459 L 756 458 Z M 718 421 L 718 418 L 719 417 L 721 417 L 722 418 L 723 418 L 724 419 L 723 420 L 721 420 L 719 422 Z M 783 381 L 786 381 Z" fill="white" fill-rule="evenodd" />
</svg>